<svg width="673" height="100" viewBox="0 0 673 100" fill="none" xmlns="http://www.w3.org/2000/svg">
<path d="M50 100C77.6142 100 100 77.6142 100 50C100 22.3858 77.6142 0 50 0C22.3858 0 0 22.3858 0 50C0 77.6142 22.3858 100 50 100Z" fill="#FCBF24"/>
<path d="M24.9563 50L50.0001 24.9563L75.0438 50L50.0001 75.0437L24.9563 50Z" fill="#D97707"/>
<path d="M85.4167 14.5833L50 50V25L60.4167 14.5833H85.4167ZM50 50L85.4167 85.4167V60.4167L75 50H50ZM39.5834 85.4167L50 75V50L14.5834 85.4167H39.5834ZM14.5834 39.5833L25 50H50L14.5834 14.5833V39.5833Z" fill="#FEF3C7"/>
<path d="M154.375 63.9583H171.042V72.0833H145.833V28.9583H154.375V63.9583ZM198.542 41.25H206.667V72.0833H198.542V68.5417C196.25 71.25 192.917 73.125 188.333 73.125C180 73.125 173.125 66.0417 173.125 56.875C173.125 47.7083 180 40.625 188.333 40.625C192.917 40.625 196.25 42.2917 198.542 45.2083V41.25ZM198.542 56.6667C198.542 51.4583 194.792 47.9167 189.792 47.9167C184.792 47.9167 181.25 51.4583 181.25 56.6667C181.25 61.875 185 65.4167 189.792 65.4167C195 65.4167 198.542 61.875 198.542 56.6667ZM221.875 46.4583V41.25H213.75V72.0833H221.875V57.2917C221.875 50.8333 227.083 48.9583 231.25 49.375V40.4167C227.5 40.625 223.542 42.2917 221.875 46.4583ZM258.542 41.25H266.667V72.0833H258.542V68.5417C256.25 71.25 252.917 73.125 248.333 73.125C240 73.125 233.125 66.0417 233.125 56.875C233.125 47.7083 240 40.625 248.333 40.625C252.917 40.625 256.25 42.2917 258.542 45.2083V41.25ZM258.542 56.6667C258.542 51.4583 254.792 47.9167 249.792 47.9167C244.792 47.9167 241.25 51.4583 241.25 56.6667C241.25 61.875 245 65.4167 249.792 65.4167C254.792 65.4167 258.542 61.875 258.542 56.6667ZM286.667 62.9167L279.167 41.25H270.417L282.292 72.0833H291.458L303.333 41.25H294.583L286.667 62.9167ZM336.458 56.6667C336.458 57.9167 336.25 58.9583 336.25 60H312.5C313.542 64.1667 317.083 65.8333 321.25 65.8333C324.375 65.8333 326.875 64.5833 328.125 62.7083L334.583 66.4583C331.667 70.625 327.083 73.125 321.042 73.125C310.625 73.125 303.958 66.0417 303.958 56.875C303.958 47.7083 310.625 40.625 320.417 40.625C329.792 40.4167 336.458 47.5 336.458 56.6667ZM328.333 53.75C327.292 49.375 323.958 47.5 320.625 47.5C316.25 47.5 313.333 49.7917 312.5 53.75H328.333ZM341.875 27.0833V72.0833H350V27.0833H341.875ZM401.458 49.7917C403.75 48.9583 405.417 47.7083 406.667 46.0417C407.917 44.375 408.542 42.2917 408.542 40C408.542 36.25 407.292 33.5417 404.792 31.6667C402.292 29.7917 398.75 28.75 394.375 28.75H377.083V72.0833H394.792C399.375 72.0833 403.125 71.0417 405.625 68.9583C408.125 66.875 409.375 63.9583 409.375 60.2083C409.375 57.5 408.75 55.2083 407.292 53.3333C405.833 51.6667 403.958 50.4167 401.458 49.7917ZM380.833 31.875H393.542C400.833 31.875 404.375 34.5833 404.375 40C404.375 42.7083 403.542 44.7917 401.667 46.25C399.792 47.7083 397.083 48.3333 393.542 48.3333H380.833V31.875ZM402.917 66.6667C401.25 68.125 398.333 68.75 394.583 68.75H380.833V51.6667H394.583C401.875 51.6667 405.417 54.5833 405.417 60.4167C405.417 63.3333 404.583 65.4167 402.917 66.6667ZM432.083 40.8333C433.125 40.8333 433.958 40.8333 434.792 41.0417L434.583 44.375C433.75 44.1667 432.917 44.1667 431.667 44.1667C428.542 44.1667 426.25 45.2083 424.583 47.0833C423.125 48.9583 422.292 51.4583 422.292 54.1667V72.0833H418.75V50C418.75 46.875 418.542 43.9583 418.333 41.4583H421.875L422.292 47.0833C423.125 45 424.375 43.3333 426.042 42.2917C427.708 41.25 429.792 40.8333 432.083 40.8333ZM452.292 40.8333C449.375 40.8333 446.875 41.4583 444.792 42.7083C442.5 43.9583 440.833 45.8333 439.583 48.3333C438.333 50.8333 437.708 53.5417 437.708 56.6667C437.708 61.6667 439.167 65.4167 441.875 68.125C444.583 70.8333 448.333 72.2917 453.125 72.2917C455.417 72.2917 457.5 71.875 459.583 71.25C461.667 70.4167 463.542 69.5833 464.792 68.3333L463.333 65.4167C460.208 67.9167 456.875 69.1667 453.125 69.1667C449.375 69.1667 446.667 68.125 444.583 65.8333C442.708 63.75 441.667 60.625 441.667 56.4583V56.25H465.417V55.4167C465.417 50.8333 464.167 47.0833 461.875 44.5833C459.792 42.0833 456.458 40.8333 452.292 40.8333ZM442.083 53.5417C442.5 50.4167 443.75 48.125 445.417 46.4583C447.292 44.7917 449.583 43.9583 452.5 43.9583C455.417 43.9583 457.5 44.7917 459.167 46.4583C460.833 48.125 461.667 50.4167 461.875 53.5417H442.083ZM486.25 40.8333C483.333 40.8333 480.833 41.4583 478.75 42.7083C476.458 43.9583 474.792 45.8333 473.542 48.3333C472.292 50.8333 471.667 53.5417 471.667 56.6667C471.667 61.6667 473.125 65.4167 475.833 68.125C478.542 70.8333 482.292 72.2917 487.083 72.2917C489.375 72.2917 491.458 71.875 493.542 71.25C495.625 70.4167 497.5 69.5833 498.75 68.3333L497.292 65.4167C494.167 67.9167 490.833 69.1667 487.083 69.1667C483.333 69.1667 480.625 68.125 478.542 65.8333C476.667 63.75 475.625 60.625 475.625 56.4583V56.25H499.375V55.4167C499.375 50.8333 498.125 47.0833 495.833 44.5833C493.542 42.0833 490.417 40.8333 486.25 40.8333ZM475.833 53.5417C476.25 50.4167 477.5 48.125 479.167 46.4583C481.042 44.7917 483.333 43.9583 486.25 43.9583C489.167 43.9583 491.25 44.7917 492.917 46.4583C494.583 48.125 495.417 50.4167 495.625 53.5417H475.833ZM510.208 68.9583H531.458V72.0833H505.417V69.5833L526.25 44.5833H506.25V41.6667H530.833V44.375L510.208 68.9583ZM564.583 56.4583V55.625C564.583 51.0417 563.333 47.2917 561.042 44.7917C558.75 42.2917 555.625 40.8333 551.458 40.8333C548.542 40.8333 546.042 41.4583 543.958 42.7083C541.667 43.9583 540 45.8333 538.75 48.3333C537.5 50.8333 536.875 53.5417 536.875 56.6667C536.875 61.6667 538.333 65.4167 541.042 68.125C543.75 70.8333 547.5 72.2917 552.292 72.2917C554.583 72.2917 556.667 71.875 558.75 71.25C560.833 70.4167 562.708 69.5833 563.958 68.3333L562.5 65.4167C559.375 67.9167 556.042 69.1667 552.292 69.1667C548.542 69.1667 545.833 68.125 543.75 65.8333C541.875 63.75 540.833 60.625 540.833 56.4583V56.25H564.583V56.4583ZM544.583 46.4583C546.458 44.7917 548.75 43.9583 551.667 43.9583C554.583 43.9583 556.667 44.7917 558.333 46.4583C560 48.125 560.833 50.4167 561.042 53.5417H541.25C541.667 50.4167 542.708 48.125 544.583 46.4583Z" fill="#2E2E2E"/>
<path d="M617.017 70L601.317 35H598.367L582.667 70H585.567L589.367 61.4H610.267L614.117 70H617.017ZM590.417 58.9L599.817 37.6L609.217 58.9H590.417Z" fill="#2E2E2E"/>
<path d="M633.084 68.1C627.434 68.1 623.084 63.75 623.084 57.7C623.084 51.65 627.334 47.3 633.084 47.3C638.684 47.3 643.184 50.7 643.184 57.65C643.184 64.6 638.684 68.1 633.084 68.1ZM622.884 80.3V64.3C624.984 68.4 628.884 70.45 633.084 70.45C640.034 70.45 645.634 65.95 645.634 57.65C645.634 49.7 640.334 45.2 633.634 44.95C628.834 44.95 624.884 47.4 622.934 51.15V45.3H620.534V80.3H622.884Z" fill="#2E2E2E"/>
<path d="M654.087 45.2V70H651.637V45.2H654.087ZM650.937 37.25C650.937 39.85 654.887 39.85 654.887 37.25C654.887 34.65 650.937 34.65 650.937 37.25Z" fill="#2E2E2E"/>
<path d="M616.017 70L600.317 35H597.367L581.667 70H584.567L588.367 61.4H609.267L613.117 70H616.017ZM589.417 58.9L598.817 37.6L608.217 58.9H589.417Z" fill="#2E2E2E"/>
<path d="M632.084 68.1C626.434 68.1 622.084 63.75 622.084 57.7C622.084 51.65 626.334 47.3 632.084 47.3C637.684 47.3 642.184 50.7 642.184 57.65C642.184 64.6 637.684 68.1 632.084 68.1ZM621.884 80.3V64.3C623.984 68.4 627.884 70.45 632.084 70.45C639.034 70.45 644.634 65.95 644.634 57.65C644.634 49.7 639.334 45.2 632.634 44.95C627.834 44.95 623.884 47.4 621.934 51.15V45.3H619.534V80.3H621.884Z" fill="#2E2E2E"/>
<path d="M653.087 45.2V70H650.637V45.2H653.087ZM649.937 37.25C649.937 39.85 653.887 39.85 653.887 37.25C653.887 34.65 649.937 34.65 649.937 37.25Z" fill="#2E2E2E"/>
</svg>
